
        <svg xmlns="http://www.w3.org/2000/svg" xmlns:xlink="http://www.w3.org/1999/xlink" version="1.1" width="3162.198693399415" 
        height="794.2197118745318" viewBox="0 0 3162.198693399415 794.2197118745318">
			<rect fill="#131313" width="3162.198693399415" height="794.2197118745318"/>
			<g transform="scale(8.109934669970714) translate(10, 10)">
				<defs id="SvgjsDefs1048"></defs><g id="SvgjsG1049" featureKey="4yrtKO-0" transform="matrix(0.08275640527418764,0,0,0.08275640527418764,292.0759938861858,-2.4082131613464046)" fill="#f5223e"><g xmlns="http://www.w3.org/2000/svg"><path d="M146.6,312.2l273.4-157.9h0c7.6,3.1,15.8,4.8,24.4,4.8c35.8,0,65-29.2,65-65c0-35.8-29.2-65-65-65   c-35.8,0-64.8,29-65,64.7v0L97,256.9c-23.1,13.4-37.5,38.3-37.5,65.1v347.2c0,26.7,14.4,51.7,37.6,65.1l318,183.6   c4.4,2.5,9.4,3.9,14.4,3.9c5,0,10-1.3,14.4-3.9c9-5.2,14.4-14.6,14.4-25v-9.3c0-15.2-8.2-29.3-21.3-36.9L146.6,679   c-8.9-5.2-14.5-14.8-14.5-25.1V337.3C132.1,327,137.7,317.3,146.6,312.2z M405.4,78.9L405.4,78.9c6.1-15.7,21.3-26.7,39.1-26.7   c2.2,0,4.3,0.2,6.4,0.5h0c2.6,0.4,5.1,1,7.4,1.9c16.4,5.7,28.1,21.3,28.1,39.6c0,20.1-14.2,37-33.1,41c-2.8,0.6-5.8,0.9-8.8,0.9   c-23.2,0-42-18.8-42-42C402.5,88.7,403.6,83.6,405.4,78.9z"></path><path d="M903.6,276.8L585.4,93.1c-4.5-2.6-9.5-3.9-14.6-3.9c-5.1,0-10.1,1.4-14.6,3.9c-9.1,5.3-14.6,14.7-14.6,25.3   v12.9c0,12.6,6.8,24.3,17.7,30.6L854,332c8.6,4.9,13.9,14.1,13.9,24v318c0,9.9-5.3,19.1-13.9,24l-266.4,150   c-8.9-4.6-19-7.2-29.6-7.2c-35.8,0-65,29.2-65,65c0,35.8,29.2,65,65,65c32.5,0,59.5-23.9,64.3-55.1l281.4-162.5   c22.8-13.2,36.9-37.6,36.9-63.9V340.7C940.5,314.4,926.4,289.9,903.6,276.8z M587,936.1c-4.9,4.7-10.8,8.2-17.5,10.1   c-3.7,1.1-7.6,1.6-11.6,1.6c-0.4,0-0.9,0-1.3,0c-22.6-0.7-40.7-19.2-40.7-41.9c0-23.2,18.8-42,42-42c2.2,0,4.4,0.2,6.5,0.5   c20.1,3.1,35.5,20.5,35.5,41.5C599.9,917.8,595,928.5,587,936.1z"></path><path d="M689.4,551L196.9,681.6c-8.6,2.3-16.8-13.8-12-23.6l11.3-23.3c9-18.6,22.7-31,38.9-35.3l488.9-129.6   c8.6-2.3,16.8,13.8,12,23.6l-13.2,27.4C715,536.7,703.3,547.4,689.4,551z"></path><path d="M693,669.3l-304.9,80.8c-5.3,1.4-12.1-15-10-24.2l5.1-21.6c4-17.3,11.7-28.1,21.8-30.7l302.7-80.2   c5.3-1.4,12.1,15,10,24.2l-5.9,25.4C708.2,657.8,701.6,667,693,669.3z"></path><path d="M614.1,358.5l-304.9,80.8c-5.3,1.4-12.1-15-10-24.2l5.1-21.6c4-17.3,11.7-28.1,21.8-30.7l302.7-80.2   c5.3-1.4,12.1,15,10,24.2l-5.9,25.4C629.2,347,622.7,356.2,614.1,358.5z"></path><path d="M778,418.1L285.6,548.6c-8.6,2.3-16.8-13.8-12-23.6l11.3-23.3c9-18.6,22.7-31,38.9-35.3l488.9-129.6   c8.6-2.3,16.8,13.8,12,23.6l-13.2,27.4C803.7,403.8,792,414.4,778,418.1z"></path></g></g><g id="SvgjsG1050" featureKey="Gem1BN-0" transform="matrix(2.2441713257687383,0,0,2.2441713257687383,-3.8599747445284867,-10.80434061708934)" fill="#cfdbfc"><path d="M3.66 7.300000000000001 l0 4.98 l3.86 0 c1.74 0 2.92 -0.64 2.92 -2.58 c0 -1.82 -1.24 -2.4 -2.84 -2.4 l-3.94 0 z M3.66 13.940000000000001 l0 6.06 l-1.94 0 l0 -14.36 l6.46 0 c2.66 0 4.26 1.72 4.26 4.04 c0 2 -1.14 4.26 -4.26 4.26 l-4.52 0 z M18.706 13.84 l0 6.16 l-1.94 0 l0 -14.36 l6.64 0 c2.36 0 4.72 0.82 4.72 3.86 c0 2.12 -1.08 2.9 -2 3.44 c0.82 0.34 1.64 0.7 1.72 2.7 l0.12 2.6 c0.02 0.8 0.12 1.1 0.72 1.44 l0 0.32 l-2.38 0 c-0.28 -0.88 -0.34 -3.06 -0.34 -3.6 c0 -1.18 -0.24 -2.56 -2.56 -2.56 l-4.7 0 z M18.706 7.300000000000001 l0 4.88 l4.5 0 c1.42 0 2.92 -0.36 2.92 -2.48 c0 -2.22 -1.62 -2.4 -2.58 -2.4 l-4.84 0 z M40.652 15.82 l-5.76 0 l-1.5 4.18 l-2 0 l5.4 -14.36 l2.2 0 l5.2 14.36 l-2.12 0 z M35.492000000000004 14.1 l4.46 0 l-2.12 -6.32 l-0.04 0 z M59.598 9.96 l-1.88 0 c-0.54 -2.52 -2.64 -2.98 -4.02 -2.98 c-2.6 0 -4.7 1.92 -4.7 5.7 c0 3.38 1.2 5.98 4.76 5.98 c1.26 0 3.44 -0.6 4.1 -3.94 l1.88 0 c-0.8 5.42 -5.2 5.66 -6.28 5.66 c-3.26 0 -6.46 -2.12 -6.46 -7.64 c0 -4.42 2.52 -7.48 6.7 -7.48 c3.7 0 5.62 2.3 5.9 4.7 z M62.504000000000005 7.359999999999999 l0 -1.72 l11.66 0 l0 1.72 l-4.86 0 l0 12.64 l-1.94 0 l0 -12.64 l-4.86 0 z M79.87 5.640000000000001 l0 14.36 l-1.94 0 l0 -14.36 l1.94 0 z M96.816 9.96 l-1.88 0 c-0.54 -2.52 -2.64 -2.98 -4.02 -2.98 c-2.6 0 -4.7 1.92 -4.7 5.7 c0 3.38 1.2 5.98 4.76 5.98 c1.26 0 3.44 -0.6 4.1 -3.94 l1.88 0 c-0.8 5.42 -5.2 5.66 -6.28 5.66 c-3.26 0 -6.46 -2.12 -6.46 -7.64 c0 -4.42 2.52 -7.48 6.7 -7.48 c3.7 0 5.62 2.3 5.9 4.7 z M108.982 15.82 l-5.76 0 l-1.5 4.18 l-2 0 l5.4 -14.36 l2.2 0 l5.2 14.36 l-2.12 0 z M103.822 14.1 l4.46 0 l-2.12 -6.32 l-0.04 0 z M117.908 5.640000000000001 l0 12.64 l7.28 0 l0 1.72 l-9.22 0 l0 -14.36 l1.94 0 z"></path></g><g id="SvgjsG1051" featureKey="Gem1BN-1" transform="matrix(2.1819647179051156,0,0,2.1819647179051156,-2.138326505606543,33.52286612484886)" fill="#cfdbfc"><path d="M12 9.84 l-1.82 0 c-0.1 -2.22 -1.94 -2.92 -3.56 -2.92 c-1.22 0 -3.28 0.34 -3.28 2.52 c0 1.22 0.86 1.62 1.7 1.82 l4.1 0.94 c1.86 0.44 3.26 1.56 3.26 3.84 c0 3.4 -3.16 4.34 -5.62 4.34 c-2.66 0 -3.7 -0.8 -4.34 -1.38 c-1.22 -1.1 -1.46 -2.3 -1.46 -3.64 l1.82 0 c0 2.6 2.12 3.36 3.96 3.36 c1.4 0 3.76 -0.36 3.76 -2.42 c0 -1.5 -0.7 -1.98 -3.06 -2.54 l-2.94 -0.68 c-0.94 -0.22 -3.06 -0.88 -3.06 -3.38 c0 -2.24 1.46 -4.44 4.94 -4.44 c5.02 0 5.52 3 5.6 4.58 z M27.786 12.82 c0 -3.38 -1.88 -5.84 -5 -5.84 s-5 2.46 -5 5.84 s1.88 5.84 5 5.84 s5 -2.46 5 -5.84 z M29.786 12.82 c0 3.1 -1.64 7.56 -7 7.56 s-7 -4.46 -7 -7.56 s1.64 -7.56 7 -7.56 s7 4.46 7 7.56 z M35.692 5.640000000000001 l0 12.64 l7.28 0 l0 1.72 l-9.22 0 l0 -14.36 l1.94 0 z M55.958 5.640000000000001 l1.94 0 l0 9.32 c0 2.94 -1.84 5.42 -5.78 5.42 c-3.86 0 -5.52 -2.48 -5.52 -5.16 l0 -9.58 l1.94 0 l0 9.04 c0 3.12 1.9 3.98 3.64 3.98 c1.78 0 3.78 -0.82 3.78 -3.94 l0 -9.08 z M61.404 7.359999999999999 l0 -1.72 l11.66 0 l0 1.72 l-4.86 0 l0 12.64 l-1.94 0 l0 -12.64 l-4.86 0 z M78.77000000000001 5.640000000000001 l0 14.36 l-1.94 0 l0 -14.36 l1.94 0 z M95.016 12.82 c0 -3.38 -1.88 -5.84 -5 -5.84 s-5 2.46 -5 5.84 s1.88 5.84 5 5.84 s5 -2.46 5 -5.84 z M97.016 12.82 c0 3.1 -1.64 7.56 -7 7.56 s-7 -4.46 -7 -7.56 s1.64 -7.56 7 -7.56 s7 4.46 7 7.56 z M110.50200000000001 17.240000000000002 l0 -11.6 l1.88 0 l0 14.36 l-2.18 0 l-7.3 -11.6 l-0.04 0 l0 11.6 l-1.88 0 l0 -14.36 l2.3 0 l7.18 11.6 l0.04 0 z M127.56800000000001 9.84 l-1.82 0 c-0.1 -2.22 -1.94 -2.92 -3.56 -2.92 c-1.22 0 -3.28 0.34 -3.28 2.52 c0 1.22 0.86 1.62 1.7 1.82 l4.1 0.94 c1.86 0.44 3.26 1.56 3.26 3.84 c0 3.4 -3.16 4.34 -5.62 4.34 c-2.66 0 -3.7 -0.8 -4.34 -1.38 c-1.22 -1.1 -1.46 -2.3 -1.46 -3.64 l1.82 0 c0 2.6 2.12 3.36 3.96 3.36 c1.4 0 3.76 -0.36 3.76 -2.42 c0 -1.5 -0.7 -1.98 -3.06 -2.54 l-2.94 -0.68 c-0.94 -0.22 -3.06 -0.88 -3.06 -3.38 c0 -2.24 1.46 -4.44 4.94 -4.44 c5.02 0 5.52 3 5.6 4.58 z"></path></g>
			</g>
		</svg>
	